<svg xmlns="http://www.w3.org/2000/svg" style="display: none;">
  
    <symbol id="bl-info-1" viewBox="0 0 512 512">
      <path d="m318 0c17 0 29 5 38 14c9 9 14 21 14 35c0 17-7 32-20 45c-14 13-30 20-49 20c-16 0-29-5-38-14c-9-9-13-21-12-37c0-15 6-30 18-43c12-13 28-20 49-20m-105 512c-34 0-43-30-28-91c0 0 31-130 31-130c5-19 5-29 0-29c-4 0-13 3-28 9c-14 7-26 13-36 20c0 0-14-23-14-23c31-26 63-48 97-64c34-17 60-25 77-25c27 0 33 28 19 83c0 0-36 136-36 136c-6 22-5 33 3 33c15 0 35-10 60-31c0 0 16 21 16 21c-29 29-59 52-90 67c-31 16-55 24-71 24"/>
    </symbol>
  
    <symbol id="bl-share-1" viewBox="0 0 512 512">
      <path d="m384 293c25 0 47 8 65 26 18 18 26 40 26 65 0 25-8 47-26 65-18 18-40 26-65 26-25 0-47-8-65-26-18-18-26-40-26-65 0-2 0-6 0-10l-103-51c-17 16-38 24-62 24-25 0-47-8-65-26-18-18-26-40-26-65 0-25 8-47 26-65 18-18 40-26 65-26 24 0 45 8 62 24l103-51c0-4 0-8 0-10 0-25 8-47 26-65 18-18 40-26 65-26 25 0 47 8 65 26 18 18 26 40 26 65 0 25-8 47-26 65-18 18-40 26-65 26-24 0-45-8-62-24l-103 51c0 4 0 8 0 10 0 2 0 6 0 10l103 51c17-16 38-24 62-24z"/>
    </symbol>
  
    <symbol id="bl-arr-left-1-1" viewBox="0 0 512 512">
      <path d="m368 445c9 9 9 18 0 25c-8 9-17 9-24 0c0 0-201-202-201-202c-8-8-8-16 0-25c0 0 201-202 201-202c7-9 16-9 24 0c9 7 9 16 0 25c0 0-183 190-183 190c0 0 183 189 183 189"/>
    </symbol>
  
    <symbol id="bl-arr-down-1-1" viewBox="0 0 512 512">
      <path d="m67 143c0 0 189 183 189 183c0 0 190-183 190-183c8-9 16-9 25 0c9 8 9 16 0 25c0 0-203 201-203 201c-7 7-15 7-24 0c0 0-203-201-203-201c-9-9-9-17 0-25c8-8 17-8 26 0"/>
    </symbol>
  
    <symbol id="bl-arr-up-1-1" viewBox="0 0 512 512">
      <path d="m446 369c0 0-190-184-190-184c0 0-189 184-189 184c-9 7-18 7-26 0c-8-9-8-17 0-26c0 0 203-200 203-200c9-9 17-9 24 0c0 0 203 200 203 200c8 9 8 17 0 26c-9 7-17 7-25 0"/>
    </symbol>
  
    <symbol id="bl-arr-right-1-1" viewBox="0 0 512 512">
      <path d="m144 445c0 0 183-189 183-189c0 0-183-190-183-190c-9-9-9-18 0-25c8-9 17-9 24 0c0 0 201 202 201 202c8 9 8 17 0 25c0 0-201 202-201 202c-7 9-16 9-24 0c-9-7-9-16 0-25"/>
    </symbol>
  
    <symbol id="bl-share" viewBox="0 0 512 512">
      <path d="m188 256c0 2 0 3 0 5l165 82c14-12 32-19 52-19c45 0 81 36 81 81c0 45-36 81-81 81c-45 0-81-36-81-81c0-2 0-3 0-5l-165-82c-14 12-32 19-52 19c-45 0-81-36-81-81c0-45 36-81 81-81c20 0 38 7 52 19l165-82c0-2 0-4 0-5c0-45 36-81 81-81c45 0 81 36 81 81c0 45-36 81-81 81c-20 0-38-7-52-19l-165 82c0 2 0 3 0 5z"/>
    </symbol>
  
    <symbol id="bl-info" viewBox="0 0 512 512">
      <path d="m288 448l0-256-96 0 0 16 32 0 0 240-32 0 0 16 128 0 0-16z m-32-303c26 0 48-22 48-49 0-26-22-48-48-48-27 0-48 22-48 48 0 27 21 49 48 49z"/>
    </symbol>
  
    <symbol id="bl-arrow-up" viewBox="0 0 512 512">
      <path d="m66 218c-11 12-11 31 0 42c12 12 31 12 42 0l118-118l0 312c0 16 14 30 30 30c16 0 30-14 30-30l0-312l118 118c11 12 30 12 42 0c6-6 8-13 8-21c0-8-2-15-8-21l-190-190z"/>
    </symbol>
  
    <symbol id="bl-arrow-right" viewBox="0 0 512 512">
      <path d="m294 66c-12-11-31-11-42 0c-12 12-12 31 0 42l118 118l-312 0c-16 0-30 14-30 30c0 16 14 30 30 30l312 0l-118 118c-12 11-12 30 0 42c6 6 13 8 21 8c7 0 15-2 21-8l190-190z"/>
    </symbol>
  
    <symbol id="bl-arrow-left" viewBox="0 0 512 512">
      <path d="m218 446c12 11 31 11 42 0c12-12 12-31 0-42l-118-118l312 0c16 0 30-14 30-30c0-16-14-30-30-30l-312 0l118-118c12-11 12-30 0-42c-6-5-13-8-21-8c-8 0-15 3-21 8l-190 190z"/>
    </symbol>
  
    <symbol id="bl-arrow-down" viewBox="0 0 512 512">
      <path d="m446 294c11-12 11-31 0-42c-12-12-31-12-42 0l-118 118l0-312c0-16-14-30-30-30c-16 0-30 14-30 30l0 312l-118-118c-11-12-30-12-42 0c-5 6-8 13-8 21c0 7 3 15 8 21l190 190z"/>
    </symbol>
  
    <symbol id="bl-arrow-down-c" viewBox="0 0 512 512">
      <path d="m384 323l-105 100c-6 6-14 9-23 9-8 0-16-3-22-9l-106-100c-12-12-12-32 0-43 13-12 33-12 46 0l50 48 0-217c0-17 14-31 32-31 18 0 32 14 32 31l0 217 50-48c13-12 33-12 46 0 12 11 12 31 0 43z"/>
    </symbol>
  
    <symbol id="bl-arrow-right-c" viewBox="0 0 512 512">
      <path d="m323 128l100 105c6 6 9 14 9 23 0 9-3 16-9 22l-100 106c-12 12-32 12-43 0-12-13-12-33 0-46l48-50-217 0c-17 0-31-14-31-32 0-18 14-32 31-32l217 0-49-50c-11-13-11-33 0-46 12-12 32-12 44 0z"/>
    </symbol>
  
    <symbol id="bl-arrow-up-c" viewBox="0 0 512 512">
      <path d="m128 189l105-100c6-6 14-9 23-9 9 0 16 3 22 9l106 100c12 12 12 32 0 44-13 11-33 11-46 0l-50-49 0 217c0 17-14 31-32 31-18 0-32-14-32-31l0-217-50 49c-13 12-33 12-46 0-12-12-12-32 0-44z"/>
    </symbol>
  
    <symbol id="bl-arrow-left-c" viewBox="0 0 512 512">
      <path d="m189 128l-100 105c-6 6-9 14-9 23 0 9 3 16 9 22l100 106c12 12 32 12 44 0 11-13 11-33 0-46l-49-50 217 0c17 0 31-14 31-32 0-18-14-32-31-32l-217 0 49-50c12-13 12-33 0-46-12-12-32-12-44 0z"/>
    </symbol>
  
    <symbol id="bl-cross-round" viewBox="0 0 512 512">
      <path d="m335 154l-79 79l-79-79l-23 23l79 79l-79 79l23 23l79-79l79 79l23-23l-79-79l79-79z m-79-154c-141 0-256 115-256 256c0 141 115 256 256 256c141 0 256-115 256-256c0-141-115-256-256-256z m0 472c-119 0-216-97-216-216c0-119 97-216 216-216c119 0 216 97 216 216c0 119-97 216-216 216z"/>
    </symbol>
  
    <symbol id="bl-cross" viewBox="0 0 512 512">
      <path d="m288 256l143-142c4-5 6-10 6-16c0-12-11-23-23-23c-6 0-11 1-16 6l-142 142l-142-142c-5-5-10-6-16-6c-12 0-23 11-23 23c0 6 2 11 6 16l143 142l-143 142c-4 5-6 10-6 16c0 12 11 23 23 23c6 0 11-1 16-6l142-142l142 142c5 5 10 6 16 6c12 0 23-11 23-23c0-6-2-11-6-16z"/>
    </symbol>
  
    <symbol id="bl-facebook" viewBox="0 0 512 512">
      <path d="m384 3l0 76-45 0c-17 0-28 3-33 10-6 7-9 17-9 31l0 54 84 0-11 85-73 0 0 216-87 0 0-216-73 0 0-85 73 0 0-62c0-36 10-63 29-83 20-19 47-29 80-29 28 0 49 1 65 3z"/>
    </symbol>
  
    <symbol id="bl-twitter" viewBox="0 0 512 512">
      <path d="m481 117c-13 18-28 34-46 47 0 3 0 7 0 12 0 25-3 50-11 74-7 25-18 49-33 71-14 23-32 43-52 61-21 17-45 31-74 41-29 11-60 16-92 16-52 0-99-14-142-42 7 1 14 2 22 2 43 0 81-14 115-40-20 0-38-6-54-18-16-12-27-27-33-46 7 1 13 2 18 2 8 0 16-1 24-4-21-4-39-15-53-31-14-17-21-37-21-59l0-1c13 7 27 11 42 11-13-8-23-19-30-32-8-14-11-29-11-44 0-17 4-33 12-47 23 28 51 51 84 68 33 17 69 27 107 29-2-8-3-15-3-22 0-25 9-47 27-65 18-18 40-27 66-27 26 0 49 10 67 29 21-4 40-11 59-22-7 22-21 39-41 51 18-2 35-7 53-14z"/>
    </symbol>
  
    <symbol id="bl-linkedin" viewBox="0 0 512 512">
      <path d="m136 179l0 283-94 0 0-283z m6-88c0 14-4 26-14 35-10 9-23 14-39 14l0 0c-16 0-29-5-38-14-10-9-14-21-14-35 0-14 4-26 14-35 10-9 23-14 39-14 16 0 28 5 38 14 9 9 14 21 14 35z m333 208l0 163-94 0 0-152c0-20-3-35-11-47-8-11-20-17-36-17-12 0-22 4-30 10-9 7-15 15-19 25-2 5-3 13-3 23l0 158-94 0c1-76 1-138 1-185 0-47 0-76 0-85l-1-13 94 0 0 41 0 0c4-6 7-12 11-16 4-5 10-10 17-15 6-5 15-10 24-13 10-3 21-4 33-4 33 0 59 11 79 32 20 22 29 54 29 95z"/>
    </symbol>
  
</svg>
